<?xml version="1.0" standalone="no"?>
<!DOCTYPE svg PUBLIC "-//W3C//DTD SVG 20010904//EN"
 "http://www.w3.org/TR/2001/REC-SVG-20010904/DTD/svg10.dtd">
<svg version="1.0" xmlns="http://www.w3.org/2000/svg"
 width="426.000000pt" height="426.000000pt" viewBox="0 0 426.000000 426.000000"
 preserveAspectRatio="xMidYMid meet">
<metadata>
Created by potrace 1.14, written by Peter Selinger 2001-2017
</metadata>
<g transform="translate(0.000000,426.000000) scale(0.100000,-0.100000)"
fill="#000000" stroke="none">
<path d="M90 2130 l0 -2130 2040 0 2040 0 0 2130 0 2130 -2040 0 -2040 0 0
-2130z m2700 100 l0 -1010 -725 0 -725 0 0 1010 0 1010 725 0 725 0 0 -1010z"/>
<path d="M1365 3208 c-3 -7 -4 -452 -3 -988 l3 -975 695 0 695 0 0 985 0 985
-693 3 c-549 2 -694 0 -697 -10z m575 -568 l0 -290 120 0 120 0 0 290 0 290
110 0 110 0 0 -715 0 -715 -110 0 -110 0 0 320 0 320 -120 0 -120 0 0 -320 0
-320 -110 0 -110 0 0 715 0 715 110 0 110 0 0 -290z"/>
</g>
</svg>
